<?xml version="1.0" encoding="utf-8"?>
<!-- Generator: Adobe Illustrator 17.0.0, SVG Export Plug-In . SVG Version: 6.00 Build 0)  -->
<!DOCTYPE svg PUBLIC "-//W3C//DTD SVG 1.1//EN" "http://www.w3.org/Graphics/SVG/1.1/DTD/svg11.dtd">
<svg version="1.1" id="Layer_1" xmlns="http://www.w3.org/2000/svg" xmlns:xlink="http://www.w3.org/1999/xlink" x="0px" y="0px"
	 width="200px" height="200px" viewBox="0 0 200 200" enable-background="new 0 0 200 200" xml:space="preserve">
<g id="PL_x5F_Email02_1_">
	<defs>
		<rect id="SVGID_25_" width="200" height="200"/>
	</defs>
	<clipPath id="SVGID_2_">
		<use xlink:href="#SVGID_25_"  overflow="visible"/>
	</clipPath>
	<path clip-path="url(#SVGID_2_)" fill="#56B476" d="M32,56v88h136V56H32z M154.945,64L100,118.953L45.055,64H154.945z M45.055,136
		l27.07-27.078l-4.524-4.524L40,132.008V67.992L100,128l60-60.008v64.016l-27.602-27.61l-4.523,4.524L154.945,136H45.055z"/>
	<path clip-path="url(#SVGID_2_)" fill="#56B476" d="M100,6.398c51.609,0,93.602,41.992,93.602,93.602S151.609,193.602,100,193.602
		c-51.609,0-93.602-41.992-93.602-93.602S48.391,6.398,100,6.398 M100,0C44.773,0,0,44.774,0,100s44.773,100,100,100
		c55.226,0,100-44.774,100-100S155.226,0,100,0L100,0z"/>
</g>
</svg>
